<?xml version="1.0" encoding="utf-8"?>
<!-- Generator: Adobe Illustrator 15.0.0, SVG Export Plug-In  -->
<!DOCTYPE svg PUBLIC "-//W3C//DTD SVG 1.1//EN" "http://www.w3.org/Graphics/SVG/1.1/DTD/svg11.dtd" [
	<!ENTITY ns_flows "http://ns.adobe.com/Flows/1.0/">
]>
<svg version="1.1"
	 xmlns="http://www.w3.org/2000/svg" xmlns:xlink="http://www.w3.org/1999/xlink" xmlns:a="http://ns.adobe.com/AdobeSVGViewerExtensions/3.0/"
	 x="0px" y="0px" width="206px" height="105px" viewBox="-0.658 -0.469 206 105" enable-background="new -0.658 -0.469 206 105"
	 xml:space="preserve">
<defs>
</defs>
<path fill="#3C3B3C" d="M14.569,74.213c0.301,0,0.572,0.026,0.816,0.076c0.245,0.053,0.457,0.142,0.631,0.259
	c0.177,0.121,0.309,0.277,0.406,0.478c0.097,0.197,0.145,0.445,0.145,0.733c0,0.318-0.068,0.584-0.215,0.793
	c-0.144,0.209-0.354,0.383-0.633,0.516c0.386,0.114,0.672,0.306,0.86,0.586c0.191,0.274,0.289,0.607,0.289,1.002
	c0,0.315-0.064,0.586-0.186,0.818c-0.121,0.23-0.292,0.419-0.495,0.566c-0.207,0.146-0.445,0.253-0.71,0.32
	c-0.265,0.074-0.539,0.106-0.822,0.106h-3.028v-6.254H14.569z M14.395,76.746c0.245,0,0.448-0.059,0.601-0.177
	c0.162-0.118,0.239-0.307,0.239-0.568c0-0.15-0.024-0.269-0.077-0.359c-0.053-0.095-0.124-0.168-0.212-0.225
	c-0.088-0.047-0.188-0.085-0.297-0.105c-0.118-0.023-0.236-0.026-0.359-0.026h-1.288v1.461H14.395z M14.472,79.397
	c0.139,0,0.265-0.015,0.386-0.038c0.124-0.026,0.233-0.071,0.327-0.133c0.094-0.059,0.165-0.147,0.221-0.25
	c0.056-0.104,0.085-0.236,0.085-0.401c0-0.321-0.091-0.548-0.274-0.687c-0.177-0.138-0.421-0.206-0.716-0.206h-1.5v1.715H14.472z"/>
<path fill="#3C3B3C" d="M21.914,75.938v0.843h0.015c0.056-0.142,0.138-0.271,0.239-0.392c0.097-0.118,0.212-0.221,0.341-0.307
	c0.127-0.085,0.262-0.15,0.41-0.2c0.145-0.044,0.301-0.067,0.454-0.067c0.083,0,0.177,0.012,0.271,0.044v1.157
	c-0.056-0.012-0.126-0.023-0.206-0.032c-0.083-0.009-0.159-0.012-0.239-0.012c-0.224,0-0.418,0.038-0.577,0.109
	c-0.162,0.082-0.283,0.186-0.38,0.315c-0.097,0.132-0.165,0.285-0.203,0.459c-0.044,0.177-0.065,0.365-0.065,0.568v2.042h-1.246
	v-4.528H21.914z"/>
<path fill="#3C3B3C" d="M27.075,77.224c0.109-0.295,0.265-0.548,0.469-0.755c0.203-0.209,0.451-0.368,0.736-0.479
	c0.289-0.115,0.607-0.174,0.966-0.174c0.356,0,0.675,0.059,0.966,0.174c0.289,0.111,0.536,0.271,0.743,0.479
	c0.203,0.207,0.359,0.46,0.471,0.755c0.109,0.294,0.168,0.621,0.168,0.983c0,0.359-0.059,0.689-0.168,0.981
	c-0.112,0.291-0.268,0.542-0.471,0.751c-0.207,0.206-0.454,0.362-0.743,0.478c-0.292,0.108-0.61,0.165-0.966,0.165
	c-0.359,0-0.678-0.057-0.966-0.165c-0.286-0.115-0.533-0.271-0.736-0.478c-0.204-0.209-0.359-0.46-0.469-0.751
	c-0.118-0.292-0.171-0.622-0.171-0.981C26.904,77.845,26.957,77.518,27.075,77.224 M28.203,78.737
	c0.033,0.174,0.094,0.327,0.177,0.466c0.085,0.136,0.201,0.247,0.339,0.33c0.142,0.079,0.315,0.12,0.527,0.12
	c0.209,0,0.383-0.041,0.527-0.12c0.145-0.083,0.259-0.194,0.342-0.33c0.088-0.139,0.147-0.292,0.183-0.466
	c0.035-0.171,0.05-0.351,0.05-0.53s-0.015-0.359-0.05-0.536c-0.035-0.171-0.094-0.327-0.183-0.459
	c-0.083-0.139-0.197-0.248-0.342-0.33c-0.145-0.086-0.318-0.127-0.527-0.127c-0.212,0-0.386,0.041-0.527,0.127
	c-0.138,0.082-0.253,0.191-0.339,0.33c-0.083,0.132-0.144,0.288-0.177,0.459c-0.035,0.177-0.053,0.356-0.053,0.536
	S28.168,78.566,28.203,78.737"/>
<path fill="#3C3B3C" d="M35.63,76.604c0.126-0.194,0.294-0.348,0.486-0.466c0.207-0.117,0.424-0.197,0.675-0.25
	c0.25-0.047,0.498-0.073,0.751-0.073c0.227,0,0.454,0.018,0.689,0.047c0.236,0.035,0.448,0.097,0.643,0.191
	c0.191,0.091,0.351,0.221,0.474,0.389c0.121,0.165,0.183,0.389,0.183,0.66v2.359c0,0.204,0.012,0.398,0.032,0.587
	c0.024,0.186,0.068,0.327,0.124,0.418h-1.264c-0.018-0.07-0.041-0.142-0.056-0.212c-0.012-0.074-0.023-0.15-0.026-0.224
	c-0.201,0.203-0.436,0.348-0.701,0.43c-0.271,0.08-0.545,0.121-0.828,0.121c-0.212,0-0.418-0.026-0.604-0.08
	c-0.186-0.053-0.351-0.132-0.489-0.244c-0.142-0.112-0.25-0.251-0.33-0.422c-0.074-0.17-0.115-0.368-0.115-0.604
	c0-0.259,0.044-0.469,0.132-0.634c0.091-0.167,0.203-0.3,0.351-0.4c0.142-0.097,0.31-0.171,0.489-0.224
	c0.186-0.05,0.368-0.089,0.56-0.118c0.186-0.029,0.368-0.053,0.551-0.07c0.183-0.015,0.345-0.041,0.48-0.077
	c0.141-0.038,0.253-0.085,0.336-0.155c0.08-0.065,0.118-0.162,0.112-0.295c0-0.133-0.018-0.239-0.065-0.315
	c-0.044-0.079-0.103-0.142-0.177-0.186c-0.074-0.041-0.156-0.07-0.253-0.089c-0.097-0.012-0.2-0.018-0.309-0.018
	c-0.245,0-0.439,0.048-0.578,0.156c-0.138,0.104-0.224,0.274-0.248,0.524h-1.243C35.427,77.041,35.5,76.799,35.63,76.604
	 M38.09,78.36c-0.083,0.026-0.168,0.05-0.259,0.064c-0.088,0.019-0.183,0.033-0.283,0.048c-0.101,0.009-0.195,0.026-0.301,0.041
	c-0.088,0.021-0.183,0.038-0.274,0.067c-0.088,0.036-0.168,0.074-0.236,0.121c-0.064,0.05-0.124,0.112-0.162,0.188
	c-0.038,0.074-0.059,0.174-0.059,0.289c0,0.111,0.021,0.203,0.059,0.282c0.039,0.074,0.098,0.133,0.168,0.177
	c0.068,0.045,0.15,0.077,0.245,0.092c0.097,0.018,0.188,0.026,0.289,0.026c0.245,0,0.436-0.041,0.569-0.121
	c0.135-0.079,0.233-0.183,0.3-0.291c0.065-0.118,0.1-0.233,0.121-0.348c0.009-0.118,0.018-0.212,0.018-0.283v-0.463
	C38.231,78.299,38.167,78.334,38.09,78.36"/>
<path fill="#3C3B3C" d="M46.772,79.89c-0.144,0.244-0.335,0.421-0.574,0.53c-0.233,0.108-0.504,0.162-0.798,0.162
	c-0.339,0-0.636-0.071-0.898-0.2c-0.253-0.127-0.466-0.307-0.631-0.533c-0.162-0.225-0.289-0.48-0.377-0.775
	c-0.083-0.288-0.129-0.595-0.129-0.91c0-0.304,0.047-0.598,0.129-0.878c0.088-0.283,0.215-0.533,0.377-0.751
	c0.165-0.216,0.375-0.39,0.622-0.521c0.256-0.13,0.545-0.197,0.878-0.197c0.271,0,0.527,0.059,0.769,0.171
	c0.245,0.114,0.433,0.285,0.575,0.503h0.015v-2.276h1.246v6.254H46.79V79.89H46.772z M46.722,77.653
	c-0.036-0.174-0.094-0.327-0.18-0.457c-0.085-0.132-0.194-0.238-0.327-0.32c-0.132-0.08-0.303-0.121-0.51-0.121
	c-0.206,0-0.374,0.041-0.519,0.121c-0.135,0.082-0.25,0.188-0.333,0.323c-0.085,0.136-0.147,0.289-0.186,0.46
	c-0.039,0.174-0.059,0.351-0.059,0.539c0,0.177,0.021,0.354,0.062,0.527c0.041,0.174,0.109,0.33,0.197,0.466
	c0.088,0.139,0.203,0.25,0.342,0.336c0.141,0.085,0.303,0.126,0.495,0.126c0.207,0,0.377-0.041,0.516-0.12
	c0.133-0.083,0.239-0.194,0.324-0.33c0.083-0.139,0.141-0.292,0.177-0.469c0.032-0.177,0.05-0.359,0.05-0.545
	S46.754,77.824,46.722,77.653"/>
<path fill="#3C3B3C" d="M53.221,74.213v2.276h0.018c0.15-0.232,0.356-0.403,0.619-0.509c0.259-0.109,0.527-0.165,0.813-0.165
	c0.221,0,0.451,0.047,0.672,0.141c0.224,0.095,0.421,0.239,0.601,0.425c0.177,0.197,0.324,0.444,0.433,0.745
	c0.112,0.301,0.168,0.66,0.168,1.072c0,0.419-0.056,0.775-0.168,1.072c-0.109,0.304-0.256,0.548-0.433,0.743
	c-0.18,0.191-0.377,0.335-0.601,0.43c-0.221,0.091-0.451,0.139-0.672,0.139c-0.336,0-0.636-0.054-0.896-0.159
	c-0.265-0.104-0.462-0.283-0.598-0.533h-0.018v0.577h-1.181v-6.254H53.221z M55.236,77.656c-0.042-0.177-0.103-0.33-0.191-0.463
	c-0.089-0.138-0.198-0.244-0.33-0.32c-0.13-0.083-0.289-0.118-0.478-0.118c-0.18,0-0.342,0.035-0.474,0.118
	c-0.133,0.076-0.248,0.183-0.33,0.32c-0.088,0.133-0.153,0.286-0.194,0.463c-0.042,0.174-0.062,0.356-0.062,0.551
	c0,0.186,0.021,0.368,0.062,0.545c0.041,0.174,0.106,0.327,0.194,0.463c0.083,0.136,0.197,0.238,0.33,0.321
	c0.132,0.079,0.294,0.117,0.474,0.117c0.188,0,0.348-0.038,0.478-0.117c0.132-0.083,0.241-0.186,0.33-0.321
	c0.088-0.136,0.15-0.289,0.191-0.463c0.047-0.177,0.064-0.359,0.064-0.545C55.301,78.013,55.283,77.83,55.236,77.656"/>
<path fill="#3C3B3C" d="M60.563,76.604c0.127-0.194,0.292-0.348,0.492-0.466c0.197-0.117,0.421-0.197,0.671-0.25
	c0.245-0.047,0.498-0.073,0.749-0.073c0.224,0,0.459,0.018,0.692,0.047c0.233,0.035,0.445,0.097,0.639,0.191
	c0.191,0.091,0.351,0.221,0.472,0.389c0.126,0.165,0.183,0.389,0.183,0.66v2.359c0,0.204,0.012,0.398,0.035,0.587
	c0.023,0.186,0.065,0.327,0.124,0.418h-1.261c-0.023-0.07-0.044-0.142-0.059-0.212c-0.012-0.074-0.023-0.15-0.029-0.224
	c-0.197,0.203-0.433,0.348-0.701,0.43c-0.268,0.08-0.539,0.121-0.822,0.121c-0.218,0-0.418-0.026-0.601-0.08
	c-0.191-0.053-0.356-0.132-0.495-0.244c-0.141-0.112-0.25-0.251-0.33-0.422c-0.077-0.17-0.115-0.368-0.115-0.604
	c0-0.259,0.042-0.469,0.136-0.634c0.088-0.167,0.206-0.3,0.348-0.4c0.144-0.097,0.309-0.171,0.495-0.224
	c0.18-0.05,0.365-0.089,0.551-0.118c0.188-0.029,0.371-0.053,0.554-0.07c0.18-0.015,0.342-0.041,0.483-0.077
	c0.142-0.038,0.25-0.085,0.333-0.155c0.083-0.065,0.121-0.162,0.115-0.295c0-0.133-0.023-0.239-0.067-0.315
	c-0.047-0.079-0.103-0.142-0.177-0.186c-0.074-0.041-0.153-0.07-0.253-0.089c-0.097-0.012-0.2-0.018-0.31-0.018
	c-0.248,0-0.439,0.048-0.577,0.156c-0.142,0.104-0.224,0.274-0.245,0.524h-1.246C60.359,77.041,60.43,76.799,60.563,76.604
	 M63.02,78.36c-0.08,0.026-0.162,0.05-0.253,0.064c-0.091,0.019-0.183,0.033-0.286,0.048c-0.097,0.009-0.197,0.026-0.3,0.041
	c-0.088,0.021-0.183,0.038-0.274,0.067c-0.088,0.036-0.168,0.074-0.236,0.121c-0.065,0.05-0.121,0.112-0.162,0.188
	c-0.038,0.074-0.059,0.174-0.059,0.289c0,0.111,0.021,0.203,0.059,0.282c0.041,0.074,0.097,0.133,0.165,0.177
	c0.074,0.045,0.153,0.077,0.248,0.092c0.091,0.018,0.191,0.026,0.289,0.026c0.245,0,0.433-0.041,0.571-0.121
	c0.133-0.079,0.233-0.183,0.295-0.291c0.068-0.118,0.103-0.233,0.121-0.348c0.015-0.118,0.023-0.212,0.023-0.283v-0.463
	C63.167,78.299,63.096,78.334,63.02,78.36"/>
<path fill="#3C3B3C" d="M69.678,75.938v0.631h0.026c0.156-0.263,0.359-0.451,0.613-0.574c0.25-0.118,0.504-0.18,0.769-0.18
	c0.33,0,0.604,0.047,0.819,0.138c0.212,0.089,0.38,0.216,0.507,0.378c0.118,0.155,0.206,0.356,0.253,0.586
	c0.05,0.227,0.074,0.486,0.074,0.766v2.784h-1.24V77.91c0-0.375-0.059-0.651-0.177-0.837c-0.118-0.183-0.324-0.274-0.619-0.274
	c-0.342,0-0.586,0.101-0.74,0.304c-0.15,0.2-0.227,0.53-0.227,0.993v2.371h-1.244v-4.528H69.678z"/>
<path fill="#3C3B3C" d="M79.968,79.89c-0.147,0.244-0.336,0.421-0.575,0.53c-0.235,0.108-0.503,0.162-0.801,0.162
	c-0.342,0-0.636-0.071-0.89-0.2c-0.265-0.127-0.471-0.307-0.639-0.533c-0.165-0.225-0.292-0.48-0.377-0.775
	c-0.083-0.288-0.127-0.595-0.127-0.91c0-0.304,0.044-0.598,0.127-0.878c0.085-0.283,0.212-0.533,0.377-0.751
	c0.168-0.216,0.374-0.39,0.627-0.521c0.25-0.13,0.542-0.197,0.875-0.197c0.271,0,0.527,0.059,0.772,0.171
	c0.235,0.114,0.427,0.285,0.568,0.503h0.018v-2.276h1.247v6.254h-1.185V79.89H79.968z M79.918,77.653
	c-0.032-0.174-0.097-0.327-0.18-0.457c-0.085-0.132-0.194-0.238-0.327-0.32c-0.139-0.08-0.307-0.121-0.513-0.121
	c-0.207,0-0.374,0.041-0.516,0.121c-0.142,0.082-0.256,0.188-0.336,0.323c-0.085,0.136-0.147,0.289-0.183,0.46
	c-0.041,0.174-0.062,0.351-0.062,0.539c0,0.177,0.024,0.354,0.062,0.527c0.042,0.174,0.109,0.33,0.197,0.466
	c0.094,0.139,0.204,0.25,0.345,0.336c0.133,0.085,0.301,0.126,0.492,0.126c0.206,0,0.377-0.041,0.516-0.12
	c0.135-0.083,0.244-0.194,0.324-0.33c0.083-0.139,0.147-0.292,0.18-0.469c0.03-0.177,0.05-0.359,0.05-0.545
	S79.948,77.824,79.918,77.653"/>
<path fill="#B62175" d="M43.729,37.661c-7.73,0.183-13.832,6.814-13.646,14.825c0.191,8.007,6.599,14.348,14.327,14.174
	c7.709-0.177,13.826-6.82,13.637-14.828C57.858,43.818,51.442,37.481,43.729,37.661 M44.53,60.705
	c-3.471,0.142-6.44-3.535-6.625-8.196c-0.18-4.652,2.486-8.535,5.954-8.673c3.471-0.139,6.434,3.529,6.629,8.187
	C50.667,56.675,48.006,60.566,44.53,60.705"/>
<path fill="#B62175" d="M24.497,41.42c0,0-0.083-0.088-0.112-0.112c-0.239-0.224-0.725-0.663-0.981-0.863
	c-0.262-0.203-0.819-0.572-1.099-0.742c-0.289-0.171-0.878-0.475-1.175-0.616c-0.315-0.145-0.952-0.401-1.273-0.513
	c-0.339-0.118-1.025-0.318-1.373-0.404c-0.365-0.088-1.102-0.227-1.47-0.283c-0.277-0.042-0.819-0.106-1.099-0.121
	c-1.025-0.056-3.082-0.059-4.106,0c-0.245,0.015-0.734,0.067-0.975,0.106c-0.365,0.059-1.084,0.203-1.441,0.297
	c-0.342,0.088-1.019,0.301-1.352,0.424c-0.321,0.124-0.952,0.397-1.258,0.551c-0.304,0.153-0.89,0.472-1.173,0.657
	c-0.277,0.188-0.813,0.595-1.066,0.81c-0.256,0.212-0.978,0.913-0.978,0.913s-0.242,0.262-0.318,0.354
	c-0.203,0.233-0.589,0.716-0.769,0.969s-0.507,0.787-0.654,1.055c-0.153,0.28-0.43,0.854-0.557,1.149
	c-0.133,0.298-0.365,0.908-0.462,1.22c-0.104,0.318-0.28,0.978-0.354,1.308c-0.077,0.342-0.204,1.034-0.253,1.385
	c-0.05,0.365-0.124,1.102-0.147,1.47C0.024,50.827,0,51.604,0,51.996c-0.003,0.262,0.003,0.784,0.018,1.043
	c0.018,0.38,0.115,1.523,0.115,1.523s0.139,1.069,0.206,1.423c0.059,0.342,0.215,1.022,0.31,1.361
	c0.085,0.314,0.289,0.948,0.406,1.261c0.115,0.3,0.363,0.893,0.504,1.181c0.139,0.277,0.445,0.822,0.61,1.085
	c0.165,0.256,0.524,0.751,0.713,0.992c0.191,0.236,0.586,0.695,0.795,0.913c0.209,0.222,0.64,0.64,0.866,0.834
	c0.253,0.218,0.784,0.622,1.058,0.805c0.28,0.186,0.854,0.524,1.155,0.681c0.304,0.159,0.931,0.444,1.252,0.568
	c0.33,0.127,1.001,0.345,1.343,0.438c0.348,0.095,1.066,0.242,1.423,0.304c0.377,0.062,1.143,0.156,1.526,0.188
	c0.407,0.032,1.223,0.054,1.632,0.063c0.186,0.006,0.563,0.006,0.754,0c0.395-0.016,1.19-0.086,1.585-0.124
	c0.371-0.044,1.125-0.156,1.497-0.229c0.356-0.071,1.069-0.233,1.417-0.336c0.339-0.104,0.999-0.336,1.326-0.469
	c0.312-0.13,1.229-0.563,1.229-0.563s0.872-0.524,1.158-0.695c0.041-0.023,0.156-0.089,0.156-0.089s0.822-0.595,1.081-0.818
	c0.253-0.216,0.736-0.681,0.96-0.932c0.23-0.25,0.645-0.78,0.839-1.058c0.195-0.276,0.551-0.857,0.716-1.157
	c0.171-0.31,0.477-0.943,0.613-1.27c0.138-0.333,0.468-1.373,0.468-1.373h-5.763c0,0-0.625,0.026-0.831,0.067
	c-0.324,0.059-0.958,0.292-1.237,0.466c-0.265,0.159-0.687,0.621-0.914,0.827c-0.141,0.13-0.424,0.41-0.577,0.527
	c-0.165,0.121-0.519,0.318-0.692,0.416c-0.103,0.059-0.31,0.174-0.418,0.215c-0.33,0.127-1.01,0.313-1.361,0.377
	c-0.386,0.071-1.164,0.124-1.556,0.139c-0.197,0.009-0.589,0.006-0.784-0.015c-0.374-0.038-1.123-0.165-1.482-0.277
	c-0.324-0.1-0.948-0.374-1.234-0.551c-0.271-0.174-0.751-0.612-0.987-0.831c-0.08-0.076-0.239-0.241-0.309-0.326
	c-0.174-0.216-0.504-0.666-0.646-0.905c-0.144-0.265-0.383-0.824-0.483-1.11c-0.115-0.315-0.286-0.969-0.354-1.299
	c-0.08-0.362-0.183-1.108-0.218-1.485C7.849,53.36,7.829,52.521,7.822,52.1c-0.003-0.209,0.006-0.616,0.015-0.822
	c0.023-0.397,0.085-1.19,0.138-1.585c0.047-0.351,0.18-1.055,0.271-1.394c0.083-0.309,0.286-0.913,0.41-1.208
	c0.121-0.274,0.392-0.802,0.554-1.046c0.165-0.25,0.521-0.734,0.743-0.934c0.271-0.245,0.893-0.627,1.22-0.784
	c0.315-0.156,0.993-0.383,1.337-0.459c0.374-0.08,1.146-0.139,1.535-0.15c0.088-0.003,0.268,0.006,0.359,0.012
	c0.386,0.03,1.161,0.121,1.535,0.212c0.339,0.083,0.999,0.315,1.305,0.477c0.289,0.153,0.804,0.554,1.055,0.766
	c0.083,0.083,0.244,0.25,0.318,0.345c0.23,0.292,0.822,1.231,0.822,1.231h8.06c0,0-0.15-0.465-0.206-0.616
	c-0.124-0.33-0.386-0.975-0.53-1.291c-0.145-0.312-0.451-0.928-0.627-1.229c-0.174-0.292-0.554-0.854-0.754-1.131
	C25.175,42.215,24.497,41.42,24.497,41.42"/>
<path fill="#B62175" d="M118.634,52.942c0-0.187,0.003-0.551,0-0.731c0-0.259-0.012-0.769-0.023-1.022
	c-0.015-0.377-0.077-1.131-0.118-1.505c-0.035-0.356-0.133-1.069-0.197-1.417c-0.064-0.345-0.218-1.022-0.313-1.355
	c-0.091-0.321-0.298-0.946-0.415-1.255c-0.112-0.3-0.362-0.896-0.507-1.181c-0.139-0.28-0.437-0.834-0.602-1.099
	c-0.164-0.265-0.515-0.774-0.707-1.019c-0.188-0.245-0.595-0.713-0.804-0.937c-0.026-0.032-0.086-0.088-0.118-0.112
	c-0.235-0.227-0.73-0.66-0.989-0.863c-0.263-0.203-0.811-0.572-1.097-0.742c-0.282-0.171-0.869-0.475-1.169-0.616
	c-0.313-0.145-0.949-0.401-1.273-0.513c-0.335-0.118-1.024-0.318-1.369-0.404c-0.362-0.088-1.103-0.227-1.471-0.283
	c-0.392-0.059-1.172-0.147-1.564-0.174c-0.409-0.029-1.24-0.062-1.652-0.062c-0.356,0-1.081,0.027-1.443,0.053
	c-0.383,0.026-1.152,0.109-1.535,0.168c-0.365,0.056-1.09,0.203-1.446,0.297c-0.342,0.088-1.014,0.301-1.347,0.424
	c-0.321,0.124-0.939,0.397-1.243,0.551c-0.3,0.153-0.893,0.475-1.175,0.657c-0.28,0.188-0.816,0.595-1.072,0.81
	c-0.259,0.212-0.74,0.675-0.975,0.913c-0.083,0.085-0.25,0.262-0.33,0.354c-0.194,0.233-0.575,0.716-0.754,0.969
	s-0.516,0.781-0.666,1.055c-0.153,0.28-0.421,0.854-0.545,1.149c-0.127,0.298-0.36,0.908-0.463,1.22
	c-0.103,0.318-0.28,0.978-0.351,1.308c-0.077,0.342-0.203,1.034-0.252,1.385c-0.053,0.365-0.132,1.102-0.162,1.47
	c-0.027,0.389-0.042,1.169-0.044,1.561c0,0.262,0.009,0.784,0.018,1.043c0.018,0.38,0.074,1.144,0.118,1.523
	c0.032,0.356,0.146,1.069,0.208,1.423c0.065,0.339,0.212,1.022,0.303,1.361c0.085,0.314,0.298,0.948,0.416,1.261
	c0.112,0.297,0.359,0.893,0.501,1.181c0.138,0.277,0.439,0.822,0.607,1.085c0.165,0.256,0.53,0.751,0.719,0.992
	c0.186,0.236,0.583,0.695,0.79,0.913c0.206,0.222,0.633,0.64,0.863,0.834c0.25,0.221,0.787,0.616,1.063,0.805
	c0.283,0.186,0.86,0.524,1.158,0.681c0.303,0.159,0.925,0.444,1.243,0.568c0.327,0.127,1.002,0.345,1.343,0.438
	c0.351,0.095,1.067,0.242,1.426,0.304c0.377,0.062,1.14,0.156,1.523,0.188c0.371,0.029,1.117,0.054,1.488,0.063
	c0.127,0.003,0.386,0,0.516,0c0.094,0,0.285,0.006,0.383,0c0.4-0.016,1.196-0.089,1.591-0.124c0.377-0.044,1.129-0.156,1.497-0.229
	c0.359-0.071,1.075-0.233,1.423-0.336c0.333-0.104,0.989-0.342,1.308-0.469c0.315-0.13,0.946-0.406,1.246-0.563
	c0.298-0.159,0.854-0.53,1.146-0.695c0.038-0.023,0.114-0.065,0.15-0.089c0.279-0.186,0.827-0.601,1.084-0.818
	c0.256-0.216,0.742-0.681,0.969-0.932c0.228-0.25,0.651-0.78,0.843-1.058c0.194-0.276,0.554-0.857,0.716-1.157
	c0.168-0.31,0.46-0.946,0.592-1.27c0.136-0.336,0.48-1.373,0.48-1.373h-3.703c0,0-1.173,0.07-1.559,0.142
	c-0.383,0.067-1.143,0.273-1.511,0.409c-0.368,0.142-1.072,0.498-1.42,0.681c-0.469,0.25-1.367,0.813-1.827,1.072
	c-0.1,0.059-0.297,0.174-0.403,0.215c-0.327,0.127-1.017,0.313-1.361,0.377c-0.392,0.071-1.166,0.124-1.556,0.139
	c-0.197,0.009-0.586,0.006-0.78-0.015c-0.374-0.038-1.125-0.165-1.488-0.28c-0.327-0.097-0.949-0.371-1.237-0.548
	c-0.274-0.171-0.763-0.601-0.99-0.831c-0.18-0.183-0.51-0.577-0.648-0.789c-0.168-0.269-0.445-0.831-0.56-1.128
	c-0.118-0.321-0.292-0.993-0.354-1.332c-0.068-0.386-0.162-1.562-0.162-1.562h19.906c0,0,0.101-0.554,0.115-0.742
	C118.643,53.251,118.637,53.045,118.634,52.942 M98.612,49.38c0,0,0.018-0.51,0.044-0.684c0.05-0.345,0.195-1.037,0.307-1.37
	c0.106-0.306,0.392-0.904,0.565-1.181c0.174-0.265,0.589-0.73,0.808-0.96c0.032-0.032,0.097-0.083,0.126-0.109
	c0.271-0.209,0.846-0.601,1.158-0.749c0.315-0.156,0.987-0.392,1.332-0.459c0.471-0.094,1.429-0.153,1.9-0.139
	c0.387,0.012,1.158,0.118,1.535,0.212c0.336,0.088,0.99,0.315,1.303,0.477c0.285,0.15,0.801,0.557,1.043,0.766
	c0.079,0.074,0.235,0.23,0.3,0.318c0.186,0.241,0.501,0.769,0.628,1.042c0.147,0.31,0.359,0.955,0.438,1.285
	c0.098,0.383,0.242,1.55,0.242,1.55H98.612z"/>
<path fill="#B62175" d="M203.989,43.173c-0.188-0.604-0.489-1.193-0.872-1.703c-0.412-0.548-0.928-1.002-1.481-1.399
	c-0.604-0.442-1.258-0.819-1.947-1.108c-0.808-0.348-1.665-0.586-2.531-0.772c-0.757-0.162-1.499-0.286-2.262-0.368
	c-0.857-0.091-1.727-0.129-2.596-0.15c-1.108-0.021-2.242-0.021-3.35,0.095c-0.99,0.1-1.986,0.283-2.94,0.571
	c-0.857,0.25-1.688,0.586-2.445,1.025c-0.654,0.377-1.243,0.819-1.797,1.334c-0.666,0.613-1.246,1.332-1.65,2.136
	c-0.406,0.792-0.604,1.679-0.804,2.569h7.701c0.389-0.459,0.769-0.913,1.246-1.234c0.754-0.5,1.747-0.654,2.701-0.71
	c0.857-0.05,1.688-0.021,2.546,0.068c0.857,0.1,1.765,0.265,2.415,0.792c0.313,0.25,0.578,0.592,0.704,0.993
	c0.188,0.631,0,1.414-0.438,1.883c-0.266,0.289-0.631,0.465-1.008,0.622c-1.122,0.451-2.274,0.657-3.446,0.819
	c-1.447,0.209-2.929,0.354-4.366,0.63c-1.234,0.233-2.442,0.566-3.624,1.046c-1.388,0.545-2.742,1.285-3.665,2.404
	c-0.804,0.993-1.258,2.289-1.481,3.598c-0.242,1.411-0.215,2.846,0.186,4.18c0.53,1.697,1.676,3.259,3.138,4.267
	c0.777,0.542,1.644,0.919,2.548,1.211c0.938,0.297,1.889,0.513,2.843,0.615c1.326,0.124,2.661,0.074,3.992-0.026
	c0.793-0.05,1.603-0.124,2.396-0.229c1.001-0.124,2-0.298,2.979-0.575c0.881-0.253,1.741-0.58,2.542-1.03
	c0.97-0.53,1.862-1.211,2.619-2.03c0.73-0.808,1.332-1.735,1.747-2.743c0.427-1.052,0.654-2.186,0.742-3.322
	c0.038-0.543,0.05-1.07,0.065-1.601v-9.524C204.316,44.711,204.231,43.93,203.989,43.173 M196.901,54.713v0.253l-0.012,0.238
	l-0.009,0.254l-0.026,0.247l-0.026,0.18l-0.048,0.313l-0.053,0.238l-0.05,0.239l-0.077,0.241l-0.1,0.28l-0.074,0.188l-0.114,0.229
	l-0.109,0.212l-0.127,0.228l-0.142,0.197l-0.138,0.203l-0.15,0.203l-0.15,0.174l-0.177,0.2l-0.177,0.18l-0.174,0.159l-0.2,0.165
	l-0.118,0.104l-0.276,0.2l-0.21,0.139l-0.203,0.126l-0.221,0.124l-0.232,0.115l-0.228,0.088l-0.253,0.101l-0.212,0.076l-0.242,0.059
	l-0.238,0.065l-0.238,0.062l-0.251,0.041l-0.238,0.039l-0.254,0.023l-0.235,0.023l-0.301,0.023l-0.203,0.015h-0.25h-0.257h-0.238
	l-0.25-0.015l-0.242-0.023l-0.25-0.023l-0.197-0.023l-0.292-0.054l-0.238-0.05l-0.254-0.076l-0.224-0.086l-0.33-0.153l-0.124-0.064
	l-0.2-0.136l-0.203-0.165l-0.177-0.162l-0.177-0.188l-0.121-0.177l-0.156-0.238l-0.097-0.227l-0.104-0.228l-0.062-0.241
	l-0.077-0.298l-0.023-0.188l-0.023-0.241l-0.012-0.248v-0.256l0.023-0.254l0.023-0.253l0.074-0.289l0.053-0.2l0.077-0.241l0.1-0.224
	l0.124-0.23l0.142-0.197l0.135-0.162l0.219-0.18l0.209-0.139l0.215-0.123l0.188-0.092l0.266-0.127l0.224-0.097l0.227-0.101
	l0.227-0.088l0.228-0.089l0.188-0.076l0.276-0.089l0.239-0.062l0.238-0.062l0.254-0.063l0.238-0.062l0.238-0.056l0.242-0.048
	l0.25-0.047l0.301-0.067l0.191-0.035l0.235-0.039l0.242-0.05l0.25-0.05l0.241-0.051l0.313-0.064l0.162-0.05l0.241-0.053l0.236-0.06
	l0.191-0.05l0.307-0.08l0.224-0.062l0.247-0.062l0.242-0.063l0.238-0.073l0.266-0.079l0.2-0.06l0.238-0.088l0.227-0.077l0.239-0.091
	l0.227-0.085l0.238-0.088l0.228-0.089l0.224-0.085V54.713z"/>
<path fill="#B62175" d="M167.396,66.659c4.832-0.932,8.594-5.601,8.481-10.523V37.685h-8.481V66.659z"/>
<path fill="#B62175" d="M175.878,35.192V26.7c0,0-1.511,0.343-1.982,0.508c-0.486,0.168-1.402,0.578-1.829,0.819
	c-0.428,0.232-1.223,0.787-1.585,1.084c-0.365,0.301-1.02,0.955-1.309,1.308c-0.288,0.354-0.789,1.096-0.983,1.485
	c-0.197,0.392-0.492,1.205-0.593,1.614c-0.1,0.416-0.2,1.673-0.2,1.673H175.878z"/>
<path fill="#B62175" d="M87.896,50.002l-0.015-0.413l-0.015-0.413l-0.03-0.418l-0.029-0.427l-0.029-0.398l-0.044-0.421l-0.071-0.592
	l-0.044-0.236l-0.074-0.407l-0.068-0.412l-0.106-0.401l-0.115-0.404l-0.074-0.271l-0.186-0.521l-0.139-0.389l-0.183-0.377
	l-0.186-0.377l-0.2-0.362l-0.188-0.306l-0.277-0.389l-0.262-0.335l-0.274-0.298l-0.306-0.303l-0.459-0.407l-0.174-0.124l-0.33-0.242
	l-0.351-0.227l-0.377-0.209l-0.362-0.191l-0.375-0.183l-0.536-0.242l-0.229-0.1l-0.383-0.162l-0.38-0.156l-0.395-0.15l-0.392-0.136
	l-0.395-0.124l-0.598-0.186l-0.207-0.05l-0.4-0.106l-0.407-0.088l-0.409-0.088l-0.407-0.08l-0.354-0.059l-0.465-0.062l-0.416-0.047
	l-0.416-0.035l-0.418-0.033l-0.548-0.015h-0.283h-0.416l-0.418,0.012l-0.421,0.029l-0.413,0.033l-0.389,0.029l-0.439,0.053
	l-0.404,0.062l-0.421,0.062l-0.409,0.083l-0.463,0.088l-0.348,0.083l-0.403,0.1l-0.401,0.118l-0.28,0.082l-0.504,0.177l-0.392,0.139
	l-0.395,0.15l-0.389,0.156l-0.374,0.165l-0.383,0.171L66.16,39.57l-0.457,0.221l-0.365,0.2l-0.369,0.206l-0.354,0.227l-0.338,0.229
	l-0.33,0.248l-0.207,0.168l-0.415,0.395l-0.277,0.3l-0.269,0.327l-0.256,0.342l-0.307,0.477l-0.132,0.227l-0.198,0.365l-0.18,0.377
	l-0.162,0.389l-0.141,0.392l-0.13,0.392l-0.083,0.253l-0.126,0.557l-0.091,0.4l-0.074,0.41l-0.053,0.409l-0.042,0.416l-0.047,0.416
	l-0.036,0.416l-0.029,0.424l-0.021,0.404l-0.03,0.424l-0.015,0.421v16.687h8.229V48.511c0.026-0.31,0.056-0.613,0.109-0.914
	c0.071-0.468,0.188-0.913,0.371-1.334c0.265-0.58,0.672-1.11,1.161-1.5c0.274-0.203,0.572-0.38,0.881-0.536
	c0.439-0.212,0.899-0.38,1.379-0.48c0.516-0.101,1.037-0.133,1.564-0.159c0.519,0.026,1.046,0.059,1.558,0.159
	c0.48,0.1,0.943,0.268,1.379,0.48c0.31,0.156,0.607,0.333,0.881,0.536c0.489,0.389,0.898,0.919,1.158,1.5
	c0.195,0.421,0.315,0.866,0.383,1.334c0.053,0.301,0.08,0.604,0.109,0.914V61.37c0,0,0.053,0.781,0.097,1.034
	c0.053,0.26,0.194,0.767,0.3,1.014c0.098,0.238,0.348,0.695,0.492,0.913c0.147,0.213,0.477,0.61,0.66,0.793
	c0.183,0.183,0.589,0.521,0.807,0.666c0.215,0.146,0.671,0.392,0.913,0.494c0.242,0.098,0.746,0.254,1.002,0.304
	c0.253,0.053,1.025,0.101,1.025,0.101h2.808V50.002v16.687"/>
<path fill="#0091D0" d="M92.876,35.351c4.295-7.468,14.214-11.476,14.214-11.476c17.895-4.87,50.404,23.066,57.188,62.764
	c-1.838,7.831-1.853,6.979-3.809,15.325c0,0-3.211-5.462-9.236-12.582C147.743,53.841,117.933,9.001,92.876,35.351"/>
<path fill="#FFFFFF" d="M111.41,23.324c18.374,0,46.598,26.637,52.869,63.315c-1.838,7.831-1.853,6.979-3.812,15.325
	c0,0-3.208-5.462-9.233-12.582c-2.757-28.076-21.945-61.956-42.231-61.956c-5.395,0-10.865,2.392-16.126,7.925
	c4.295-7.468,14.214-11.476,14.214-11.476C108.452,23.503,109.898,23.324,111.41,23.324 M111.41,22.484
	c-1.597,0-3.123,0.197-4.54,0.58l-0.05,0.013l-0.045,0.02c-0.415,0.168-10.237,4.206-14.627,11.835l-3.489,6.069l4.824-5.073
	c4.837-5.085,10.058-7.666,15.52-7.666c19.604,0,38.673,33.479,41.397,61.201l0.027,0.26l0.168,0.2
	c5.909,6.985,9.117,12.411,9.15,12.468l1.061,1.803l0.477-2.039c0.999-4.242,1.494-6.121,1.975-7.939
	c0.459-1.738,0.937-3.538,1.838-7.386l0.041-0.165l-0.029-0.168c-2.901-16.963-10.75-33.243-22.102-45.831
	C132.742,29.282,120.932,22.484,111.41,22.484"/>
<path fill="#0091D0" d="M151.234,14.813c6.025-7.121,9.233-12.585,9.233-12.585c1.959,8.352,1.974,7.498,3.812,15.329
	c-6.784,39.696-39.294,67.634-57.188,62.764c0,0-9.919-4.007-14.214-11.475C117.933,95.194,147.743,50.353,151.234,14.813"/>
<path fill="#FFFFFF" d="M160.468,2.227c1.959,8.352,1.974,7.498,3.812,15.329c-6.271,36.671-34.495,63.314-52.869,63.314
	c-1.515,0-2.958-0.18-4.319-0.551c0,0-9.922-4.007-14.214-11.475c5.259,5.532,10.732,7.925,16.126,7.925
	c20.289,0,39.475-33.879,42.231-61.957C157.26,7.692,160.468,2.227,160.468,2.227 M160.807,0l-1.058,1.803
	c-0.036,0.056-3.253,5.49-9.156,12.47l-0.165,0.196L150.4,14.73c-2.725,27.721-21.794,61.202-41.397,61.202
	c-5.462,0-10.682-2.577-15.52-7.665l-4.827-5.076l3.492,6.071c4.39,7.631,14.212,11.667,14.627,11.835l0.045,0.018l0.05,0.015
	c1.417,0.386,2.943,0.58,4.54,0.58c9.519,0,21.332-6.796,31.596-18.18c11.352-12.598,19.2-28.869,22.102-45.833l0.029-0.168
	l-0.041-0.165c-0.901-3.85-1.379-5.645-1.835-7.384c-0.483-1.816-0.979-3.693-1.978-7.944L160.807,0z"/>
<polygon fill="#B62175" points="85.324,70.218 85.324,72.273 87.295,72.273 87.295,72.987 85.324,72.987 85.324,75.061 
	84.567,75.061 84.567,72.987 82.587,72.987 82.587,72.273 84.567,72.273 84.567,70.218 "/>
</svg>
